<svg width="140" height="88" viewBox="0 0 140 88" fill="none" xmlns="http://www.w3.org/2000/svg">
  <defs>
    <linearGradient id="card" x1="24" y1="24" x2="98" y2="82" gradientUnits="userSpaceOnUse">
      <stop stop-color="#FFFFFF" stop-opacity="0.96"/>
      <stop offset="1" stop-color="#DFF8EF" stop-opacity="0.86"/>
    </linearGradient>
  </defs>
  <rect x="25" y="28" width="74" height="42" rx="14" fill="#12A978" fill-opacity="0.12"/>
  <rect x="34" y="20" width="62" height="48" rx="13" fill="url(#card)"/>
  <rect x="34.5" y="20.5" width="61" height="47" rx="12.5" stroke="#97DCC8" stroke-opacity="0.72"/>
  <circle cx="54" cy="42" r="7" fill="#12A978" fill-opacity="0.68"/>
  <circle cx="77" cy="42" r="7" fill="#12A978" fill-opacity="0.68"/>
  <circle cx="65.5" cy="34" r="8" fill="#12A978" fill-opacity="0.76"/>
  <rect x="49" y="53" width="34" height="9" rx="4.5" fill="#12A978" fill-opacity="0.65"/>
  <rect x="101" y="26" width="27" height="39" rx="10" fill="#DDF6EF"/>
  <path d="M110 38V52" stroke="#00A86B" stroke-width="3" stroke-linecap="round"/>
  <path d="M117 52V38L125 52V38" stroke="#00A86B" stroke-width="3" stroke-linecap="round" stroke-linejoin="round"/>
  <rect x="7" y="58" width="29" height="18" rx="8" fill="#00A86B" fill-opacity="0.12"/>
  <path d="M21 63V71" stroke="#00A86B" stroke-width="3" stroke-linecap="round"/>
  <path d="M17 67H25" stroke="#00A86B" stroke-width="3" stroke-linecap="round"/>
  <rect x="20" y="76" width="91" height="7" rx="3.5" fill="#12A978" fill-opacity="0.09"/>
</svg>
