<svg width="140" height="88" viewBox="0 0 140 88" fill="none" xmlns="http://www.w3.org/2000/svg">
  <defs>
    <linearGradient id="frame" x1="22" y1="10" x2="112" y2="76" gradientUnits="userSpaceOnUse">
      <stop stop-color="#F8FAFF"/>
      <stop offset="1" stop-color="#E1E8FF"/>
    </linearGradient>
  </defs>
  <rect x="32" y="14" width="78" height="60" rx="15" fill="#C7D3FF" fill-opacity="0.42"/>
  <rect x="38" y="20" width="66" height="48" rx="12" fill="url(#frame)"/>
  <rect x="38.5" y="20.5" width="65" height="47" rx="11.5" stroke="#B9C8F6" stroke-opacity="0.72"/>
  <rect x="48" y="30" width="15" height="13" rx="4" fill="#DDE5F7"/>
  <rect x="68" y="30" width="15" height="13" rx="4" fill="#DDE5F7"/>
  <rect x="88" y="30" width="10" height="13" rx="4" fill="#DDE5F7"/>
  <path d="M70 52V64L83 58L70 52Z" fill="#8EA7F8" fill-opacity="0.74"/>
  <rect x="8" y="67" width="49" height="10" rx="5" fill="#6D5DF6" fill-opacity="0.12"/>
  <rect x="16" y="61" width="34" height="6" rx="3" fill="#9DAAF3" fill-opacity="0.22"/>
  <circle cx="111" cy="23" r="6" fill="#FFFFFF" fill-opacity="0.92"/>
  <circle cx="111" cy="23" r="3" fill="#F6B84B" fill-opacity="0.9"/>
  <rect x="58" y="76" width="54" height="7" rx="3.5" fill="#4F6CDB" fill-opacity="0.09"/>
</svg>
